<?xml version="1.0" ?><svg height="512" preserveAspectRatio="xMidYMid" viewBox="0 0 512 512" width="512" xmlns="http://www.w3.org/2000/svg" xmlns:xlink="http://www.w3.org/1999/xlink"><defs><style>
      .cls-1 {
        fill: #3498db;
      }

      .cls-2 {
        fill: #000;
        opacity: 0.3;
      }

      .cls-2, .cls-3 {
        fill-rule: evenodd;
      }

      .cls-3 {
        fill: #fff;
      }
    </style></defs><g><circle class="cls-1" cx="256" cy="256" r="256"/><path class="cls-2" d="M0.686,237.121 C0.231,243.355 -0.000,249.650 -0.000,256.000 C-0.000,397.385 114.615,512.000 256.000,512.000 C265.831,512.000 275.532,511.446 285.074,510.367 L380.951,291.941 L368.000,170.000 L143.844,161.990 L0.686,237.121 Z"/><path class="cls-3" d="M357.726,308.707 L247.478,309.354 L210.538,355.000 L214.553,308.553 C214.553,308.553 182.706,308.553 157.318,308.553 C131.868,308.553 128.472,279.750 128.472,279.750 C128.472,279.750 128.192,227.305 128.000,191.257 C127.826,158.595 159.784,158.000 159.784,158.000 C159.784,158.000 301.307,158.000 350.333,158.000 C381.313,158.000 383.999,186.283 383.999,186.283 C383.999,186.283 383.999,241.207 383.999,277.354 C383.999,305.333 357.726,308.707 357.726,308.707 ZM216.161,260.816 C205.962,246.509 196.084,233.588 196.084,233.588 C196.084,233.588 204.209,226.730 211.342,220.775 C220.421,213.197 206.928,193.945 194.478,205.560 C182.029,217.174 174.402,224.779 174.402,224.779 C174.402,224.779 175.205,198.929 175.205,183.938 C175.205,168.946 150.310,170.092 150.310,183.938 C150.310,197.784 151.113,250.646 151.113,267.222 C151.113,283.799 174.402,285.837 174.402,266.421 C174.402,260.928 174.402,253.608 174.402,253.608 L179.220,248.803 C179.220,248.803 190.527,264.176 198.494,275.230 C206.460,286.285 226.360,275.122 216.161,260.816 ZM253.904,211.966 C253.904,198.778 230.616,198.196 230.616,211.966 C230.616,225.737 230.616,251.640 230.616,267.222 C230.616,282.804 254.707,285.947 254.707,267.222 C254.707,248.498 253.904,225.154 253.904,211.966 ZM335.816,262.417 C325.127,248.498 314.134,234.389 314.134,234.389 C314.134,234.389 323.440,225.254 329.392,219.974 C337.592,212.700 322.476,193.118 313.331,203.157 C304.185,213.197 292.451,224.779 292.451,224.779 C292.451,224.779 292.451,206.827 292.451,187.141 C292.451,167.455 269.163,170.809 269.163,185.539 C269.163,200.270 269.966,250.038 269.966,266.421 C269.966,282.804 292.451,285.339 292.451,266.421 C292.451,257.945 292.451,253.608 292.451,253.608 L298.073,248.803 C298.073,248.803 306.658,262.658 315.740,273.629 C324.822,284.600 346.506,276.337 335.816,262.417 ZM351.878,224.779 C344.781,224.779 339.029,230.516 339.029,237.592 C339.029,244.669 344.781,250.405 351.878,250.405 C358.974,250.405 364.727,244.669 364.727,237.592 C364.727,230.516 358.974,224.779 351.878,224.779 Z"/></g></svg>